<svg width="40" height="32" viewBox="0 0 40 32" fill="none" xmlns="http://www.w3.org/2000/svg">
<path d="M0.5 0.5H24C32.5604 0.5 39.5 7.43959 39.5 16C39.5 24.5604 32.5604 31.5 24 31.5H0.5V0.5Z" fill="white" stroke="#F5F5F7"/>
<path d="M14.852 20.14C13.8627 20.14 12.9667 19.9253 12.164 19.496C11.3707 19.0573 10.7453 18.4553 10.288 17.69C9.84 16.9247 9.616 16.0613 9.616 15.1C9.616 14.1387 9.84467 13.2753 10.302 12.51C10.7593 11.7447 11.3847 11.1473 12.178 10.718C12.9807 10.2793 13.8767 10.06 14.866 10.06C15.6687 10.06 16.4013 10.2 17.064 10.48C17.7267 10.76 18.2867 11.166 18.744 11.698L17.568 12.804C16.8587 12.0387 15.986 11.656 14.95 11.656C14.278 11.656 13.676 11.8053 13.144 12.104C12.612 12.3933 12.1967 12.7993 11.898 13.322C11.5993 13.8447 11.45 14.4373 11.45 15.1C11.45 15.7627 11.5993 16.3553 11.898 16.878C12.1967 17.4007 12.612 17.8113 13.144 18.11C13.676 18.3993 14.278 18.544 14.95 18.544C15.986 18.544 16.8587 18.1567 17.568 17.382L18.744 18.502C18.2867 19.034 17.722 19.44 17.05 19.72C16.3873 20 15.6547 20.14 14.852 20.14ZM29.1959 10.2V20H27.6979L22.2939 13.364V20H20.4879V10.2H21.9859L27.3899 16.836V10.2H29.1959Z" fill="#2B2C2E"/>
</svg>
