<svg width="10" height="21" viewBox="0 0 10 21" fill="none" xmlns="http://www.w3.org/2000/svg">
<path fill-rule="evenodd" clip-rule="evenodd" d="M2.00933 10.2198V19.8599C2.00933 19.976 2.12415 20.0922 2.23897 20.0922H5.79836C5.91318 20.0922 6.028 19.976 6.028 19.8599V10.1036H8.61142C8.72624 10.1036 8.84106 9.98748 8.84106 9.87133L9.0707 6.9096C9.0707 6.73538 8.95588 6.61924 8.84106 6.61924H6.028V4.52861C6.028 4.06402 6.42986 3.65751 6.88914 3.65751H8.84106C9.01329 3.65751 9.12811 3.54137 9.12811 3.42522V0.463493C9.12811 0.347347 9.01329 0.231201 8.89847 0.231201H5.56872C3.6168 0.231201 2.00933 1.85725 2.00933 3.83173V6.67731H0.229639C0.11482 6.67731 0 6.79346 0 6.9096V9.81326C0 9.9294 0.11482 10.0455 0.229639 10.0455H2.00933V10.2198Z" fill="#3C5A99"/>
</svg>
