<svg width="21" height="22" viewBox="0 0 21 22" fill="none" xmlns="http://www.w3.org/2000/svg">
<path d="M15.6728 4.06402C14.9839 4.06402 14.4672 4.58668 14.4672 5.28356C14.4672 5.98043 14.9839 6.50309 15.6728 6.50309C16.3617 6.50309 16.8784 5.98043 16.8784 5.28356C16.9358 4.58668 16.3617 4.06402 15.6728 4.06402ZM10.3337 5.632C7.52064 5.632 5.28167 7.95492 5.28167 10.7424C5.28167 13.5299 7.57805 15.8529 10.3337 15.8529C13.0894 15.8529 15.3857 13.5299 15.3857 10.7424C15.3857 7.95492 13.1468 5.632 10.3337 5.632ZM10.3337 14.0526C8.55402 14.0526 7.06137 12.6008 7.06137 10.7424C7.06137 8.94216 8.4966 7.43226 10.3337 7.43226C12.1134 7.43226 13.606 8.88409 13.606 10.7424C13.5486 12.6008 12.1134 14.0526 10.3337 14.0526ZM20.5526 6.50309C20.5526 3.01871 17.7969 0.231201 14.3524 0.231201H6.20022C2.75565 0.231201 0 3.01871 0 6.50309V14.7495C0 18.2338 2.75565 21.0214 6.20022 21.0214H14.3524C17.7969 21.0214 20.5526 18.2338 20.5526 14.7495V6.50309ZM18.6581 14.7495C18.6581 17.1305 16.7636 19.0469 14.4098 19.0469H6.25763C3.90384 19.0469 2.00933 17.1305 2.00933 14.7495V6.50309C2.00933 4.1221 3.90384 2.20569 6.25763 2.20569H14.4098C16.7636 2.20569 18.6581 4.1221 18.6581 6.50309V14.7495Z" fill="url(#paint0_linear)"/>
<defs>
<linearGradient id="paint0_linear" x1="0.620596" y1="18.9614" x2="30.5915" y2="-6.26681" gradientUnits="userSpaceOnUse">
<stop offset="0.0011048" stop-color="#FBE18A"/>
<stop offset="0.2094" stop-color="#FCBB45"/>
<stop offset="0.3765" stop-color="#F75274"/>
<stop offset="0.5238" stop-color="#D53692"/>
<stop offset="0.7394" stop-color="#8F39CE"/>
<stop offset="1" stop-color="#5B4FE9"/>
</linearGradient>
</defs>
</svg>
