<svg width="112" height="60" viewBox="0 0 112 60" fill="none" xmlns="http://www.w3.org/2000/svg">
<path d="M80.7755 47.6855C80.6268 47.6855 80.4781 47.6721 80.3179 47.6721C79.8145 47.1241 79.128 47.1108 78.533 47.0172C77.8237 46.9103 77.6177 46.6162 77.572 45.8143C77.4919 44.5445 77.9038 43.3415 77.8809 42.0851C77.8809 41.5906 77.8923 41.096 77.8923 40.6149C77.8122 40.2139 78.1898 39.5589 77.4461 39.5189C77.3889 39.4788 77.3432 39.4253 77.2859 39.3852C76.5194 38.9174 75.6498 39.0778 75.1579 39.7862C75.1007 39.8129 75.0434 39.8396 74.9748 39.8664C74.5629 39.9466 74.151 40.0268 73.9451 40.5347C73.9336 40.6015 73.8993 40.6282 73.8421 40.6149C73.6133 40.5881 73.373 40.548 73.3387 40.9357C72.7666 41.3901 72.1374 41.6842 71.4509 41.8044C70.9131 41.898 70.5699 41.6441 70.6271 40.9089C70.7301 39.5322 71.1763 38.2758 71.7026 37.0729C72.698 34.8274 73.7163 32.5952 74.2426 30.1091C74.5744 28.532 74.8718 26.9548 75.1922 25.3776C75.2265 25.2038 75.318 25.0167 75.1693 24.883C74.9862 24.7093 74.8261 24.9098 74.7002 25.03C73.659 26.0592 72.6179 27.0884 71.5882 28.1176C69.0482 30.6438 66.6684 33.3972 63.8424 35.4957C62.0805 36.8055 60.3071 38.1288 58.2362 38.7303C58.0188 38.7971 57.8129 38.904 57.5268 38.7035C58.0989 37.9149 58.8998 37.3535 59.243 36.3778C60.0782 34.012 61.0279 31.6863 60.902 29.0265C60.8334 27.5161 60.0096 26.2196 58.9341 26.0726C58.0417 25.9389 57.3323 26.4468 56.6573 27.0617C56.1996 27.476 55.7077 27.8503 55.2271 28.2245C54.8152 28.5453 54.3576 28.6522 53.8542 28.6522C53.2821 28.6522 53.0304 28.4117 53.099 27.7033C53.202 26.527 53.1219 25.3508 53.3164 24.1746C53.4423 23.4662 53.1906 23.4395 52.7215 23.7469C50.9252 24.9098 49.2662 26.2998 47.5615 27.6097C46.2915 28.5854 44.9414 29.3072 43.4312 29.5611C43.3854 29.4943 43.3396 29.4141 43.2939 29.3473C43.7286 28.8795 44.2092 28.4651 44.5867 27.9438C46.3716 25.4979 48.0077 22.9048 49.4722 20.1782C49.9527 19.2826 50.5019 18.4272 51.0053 17.5317C51.2799 17.0371 51.5316 16.5292 51.7375 15.9812C52.138 14.8718 52.0693 14.6179 51.1311 14.1768C50.5019 13.8828 50.1243 13.4417 49.9985 12.6664C49.9413 12.2922 49.8497 11.9179 49.7353 11.5571C49.4607 10.7284 49.0946 10.568 48.4653 11.0492C47.6187 11.6774 46.9894 12.5729 46.383 13.4818C44.3007 16.6362 42.1955 19.7638 40.0216 22.838C36.8524 27.3156 32.928 30.577 28.4202 32.9561C27.2074 33.5977 25.9603 34.1724 24.7246 34.7605C24.5301 34.8541 24.267 35.0947 24.0954 34.8407C23.9009 34.56 24.164 34.3061 24.2784 34.0655C25.0336 32.5819 26.109 31.419 27.2074 30.2829C29.816 27.6364 31.9555 24.4954 33.9692 21.2341C34.5756 20.245 34.7472 19.0688 35.0676 17.9594C35.1133 17.7723 35.1477 17.505 34.9989 17.3847C34.8387 17.251 34.6671 17.4248 34.5184 17.5183C33.6031 18.1064 32.8022 18.8817 32.0814 19.7505C30.3309 21.8489 28.2486 23.4796 26.3722 25.4043C23.8093 28.024 21.338 30.7641 18.6379 33.1967C14.7822 36.6719 10.6518 39.6258 6.16686 41.8579C4.55364 42.6599 2.89465 43.3549 1.23566 44.0499C0.88098 44.197 0.457652 44.2103 0 44.0767C0.320356 43.395 0.800891 43.0074 1.28142 42.6599C1.71619 42.3391 2.12808 42.0049 2.45988 41.5505C2.60862 41.3634 2.80312 41.1094 2.6887 40.8421C2.56285 40.5213 2.28826 40.7753 2.08232 40.7352C1.86493 40.7084 1.61322 41.0693 1.47593 40.7485C1.35007 40.4678 1.67043 40.3208 1.79628 40.107C2.07087 39.6391 2.59717 39.2382 1.80772 38.6768C1.51025 38.4629 1.31575 37.9149 1.7734 37.4872C1.92214 37.3402 2.09376 37.1932 2.08232 36.8991C1.72764 36.6585 1.41872 37.1932 1.02972 36.9526C1.0526 36.0971 1.71619 35.7496 2.12808 35.215C2.35691 34.9209 2.83744 34.7071 2.6887 34.266C2.52853 33.8115 2.04799 33.9586 1.49881 34.0789C2.00223 33.3972 2.41411 32.8893 2.76879 32.3546C3.29509 31.5527 3.27221 31.4725 2.42555 31.2453C2.826 30.3497 3.52392 29.7483 4.14175 29.0532C3.70698 28.6389 3.23789 29.0666 2.84888 28.5052C2.56285 28.0909 2.50564 28.0641 2.81456 27.7166C3.16924 27.3156 3.30653 26.7275 3.75274 26.38C4.24472 25.9924 4.63372 25.4979 4.11887 24.7494C4.03878 24.6424 3.8786 24.4419 4.05022 24.2949C4.87399 23.5464 5.02273 22.3301 5.54903 21.2341C6.22406 22.6776 6.62451 24.1746 7.65423 25.2706C7.27666 25.5112 6.94487 25.2573 6.81901 25.5914C6.71604 25.9122 6.94487 26.1795 7.12793 26.3399C7.76864 26.9147 7.29955 27.7701 7.5627 28.4384C7.60846 28.5453 7.49405 28.6522 7.36819 28.6255C6.43001 28.4651 6.87622 29.08 7.11649 29.3606C7.6199 29.9621 7.44828 30.47 7.29955 31.1918C7.15081 31.9002 8.05467 32.0873 8.44368 32.5551C8.6153 32.7556 8.84412 32.9829 9.07295 32.6086C9.21024 32.368 9.37042 32.1274 9.46195 31.8601C9.78231 31.0047 9.0043 31.5393 8.85556 31.1383C9.01574 30.6304 9.1988 30.0423 9.38186 29.4676C9.18736 29.2805 9.07295 29.4275 8.93565 29.4943C8.79836 29.5611 8.61529 29.628 8.51232 29.4809C8.39791 29.3205 8.53521 29.1602 8.59241 28.9998C8.75259 28.5587 9.1988 28.1844 8.78691 27.6097C8.76403 27.5696 9.03862 27.2087 9.18736 27.0216C9.73654 26.3934 10.4345 25.9389 10.9379 25.2038C10.629 25.0568 10.3887 25.1503 10.1828 25.284C9.81663 25.5112 9.48483 25.6315 9.18736 25.1771C9.15304 25.137 9.10727 25.1102 9.07295 25.0568C8.87844 24.7761 8.31782 25.3909 8.37503 24.8028C8.42079 24.3083 8.55809 23.6801 9.02718 23.386C9.63357 23.0118 9.90816 22.2766 10.4116 21.7955C10.8349 21.3811 10.32 20.7529 10.5832 20.2717C10.4917 20.245 10.3544 20.1648 10.32 20.2049C9.7251 20.9133 9.48483 20.0579 9.26745 19.7772C9.0043 19.443 9.41619 19.1089 9.61069 18.8416C10.0111 18.2668 10.4345 17.7188 10.8578 17.1708C11.018 16.9569 11.3383 16.8634 11.2468 16.4891C11.1553 16.1149 10.8692 16.0748 10.5718 16.0882C10.5145 16.0882 10.4459 16.0481 10.1484 15.9278C12.2651 14.2303 13.5007 12.0249 13.8211 9.16454C14.7822 9.75264 15.4 11.2897 15.1483 12.3056C15.0567 12.6798 15.2512 12.9338 15.4229 13.161C16.0178 13.963 16.6356 14.7248 17.2535 15.5134C17.1162 15.8609 16.853 15.7406 16.6471 15.754C15.8119 15.7941 15.8119 15.7807 16.1208 16.6763C15.9492 16.9168 15.6746 16.6763 15.4114 16.9703C16.464 18.0129 17.7798 18.7213 18.4663 20.3519C17.7226 20.2183 17.4937 20.5257 17.8599 21.2475C17.7569 21.2876 17.6997 21.341 17.6654 21.3276C17.2649 21.194 16.6814 20.8064 16.4869 21.194C16.2581 21.6752 16.853 22.0628 17.1619 22.4237C17.6654 22.9717 18.4319 23.1454 18.8095 24.0142C18.4548 24.0543 18.1459 24.0944 17.7569 24.1345C18.1459 24.9231 18.8553 25.0434 19.3587 25.4711C19.5074 25.5914 19.6104 25.3375 19.7134 25.2172C22.9169 21.4078 26.109 17.5718 29.3355 13.7892C31.2004 11.6105 33.2827 9.73928 35.4222 7.94823C36.0515 7.41358 36.7609 7.46705 37.4588 7.74773C38.4656 8.14872 39.3924 8.77692 40.2734 9.44522C41.0857 10.0601 41.8179 9.9665 42.6074 9.39176C43.9346 8.40267 44.9185 7.02597 45.891 5.62253C47.0008 4.01861 48.2594 2.6419 49.7467 1.54588C52.2066 -0.271899 54.472 -0.77981 57.0005 1.63945C60.1469 4.66018 63.3962 7.49378 66.6227 10.3942C67.9155 11.5437 68.8652 13.1209 70.055 14.3907C70.9704 15.3664 71.0504 15.3664 72.1488 14.658C72.4348 14.4709 72.7323 14.3105 73.0298 14.1367C74.1968 13.455 75.2723 13.562 76.3935 14.3773C79.3797 16.5827 81.8053 19.5099 84.0134 22.6643C87.503 27.6364 91.4388 32.0071 96.3014 35.1214C98.2807 36.3912 100.397 37.2867 102.56 38.0219C104.688 38.7436 106.77 39.6926 108.955 40.1872C109.768 40.3743 110.569 40.655 111.415 40.6416C111.644 40.6416 111.976 40.655 111.999 41.0559C112.022 41.4035 111.701 41.4168 111.507 41.5104C106.896 43.7158 102.125 45.293 97.2739 46.5628C97.0565 46.6162 96.8277 46.6029 96.5989 46.6296C96.1412 46.6831 95.6263 46.4826 95.2488 46.9905C95.1229 47.0038 94.9856 47.0038 94.8598 47.0172C94.4822 47.0974 94.0246 46.7232 93.7271 47.2712C93.5784 47.2979 93.4182 47.3246 93.2694 47.3514C92.8232 47.4984 92.2855 47.0439 91.9079 47.632C91.4732 47.7924 91.0269 47.739 90.5807 47.7256C89.1849 47.5385 87.8348 47.9261 86.4619 48.0731C84.5168 48.2335 82.6634 47.5652 80.7755 47.6855Z" fill="#186E3A"/>
<path d="M8.32929 48.5008C9.31324 48.5008 10.3086 48.4875 11.2926 48.5142C11.5329 48.5142 11.9447 48.4474 11.8303 48.9687C11.4756 50.6661 11.7274 52.377 11.6702 54.0879C11.6473 54.7829 11.5329 55.5047 11.8875 56.1596C12.0592 56.467 11.8532 56.5739 11.6129 56.5739C10.8578 56.5739 10.0913 56.5873 9.33613 56.5739C9.00433 56.5739 8.94712 56.4135 9.02721 55.9992C9.38189 54.0745 9.14162 52.123 9.16451 50.1716C9.17595 49.5568 8.62677 49.8374 8.31785 49.7973C8.03182 49.7572 7.65426 49.6904 7.65426 50.2518C7.6657 52.1097 7.51696 53.9809 7.74579 55.8254C7.81443 56.4002 7.76867 56.5873 7.27669 56.5739C6.6131 56.5606 5.96094 56.5606 5.29735 56.5739C4.93123 56.5873 4.90835 56.4269 4.95411 56.0393C5.2287 53.727 5.19438 51.4013 4.96555 49.0756C4.91979 48.6479 4.96555 48.4875 5.35456 48.5008C6.36139 48.5276 7.34534 48.5142 8.32929 48.5008C8.32929 48.5142 8.32929 48.5142 8.32929 48.5008Z" fill="#1F6F3E"/>
<path d="M13.4778 55.1705C13.4778 53.9943 13.4435 52.8047 13.5007 51.6285C13.5236 51.1741 12.9058 50.7731 13.3863 50.3855C13.7067 50.1315 14.1414 50.0914 14.5304 49.9444C14.7249 49.8776 14.9194 49.8241 15.1139 49.7439C15.5373 49.5701 16.0064 49.236 15.9377 50.2384C15.9148 50.5592 16.1093 50.6394 16.3496 50.5191C16.4411 50.479 16.5327 50.4122 16.6242 50.3587C18.2489 49.5167 19.4159 49.9978 19.9765 51.682C20.56 53.4597 19.9994 55.7987 18.3175 56.1863C17.7912 56.3066 17.2764 56.3868 16.7501 56.4136C15.9835 56.467 15.789 56.7878 16.0979 57.6031C16.3496 58.2848 16.178 58.5655 15.6059 58.7259C15.114 58.8595 14.6334 59.0467 14.1529 59.2338C13.638 59.4477 13.4778 59.2338 13.4893 58.619C13.5007 57.4828 13.4893 56.32 13.4778 55.1705ZM15.9377 53.4998C15.9377 53.8473 15.9148 54.2082 15.9492 54.5557C15.972 54.8765 15.7775 55.371 16.2009 55.4378C16.567 55.4913 17.0018 55.4913 17.2878 55.0903C17.8599 54.2884 17.9285 52.4572 17.4136 51.6018C17.2077 51.2676 16.9674 51.027 16.5899 51.1473C16.2123 51.2543 15.972 51.5617 15.9377 52.0161C15.9034 52.5107 15.9377 53.0052 15.9377 53.4998Z" fill="#1F6F3E"/>
<path d="M52.9732 55.2106C52.9732 54.1413 52.9732 53.0854 52.9732 52.0161C52.9732 51.8691 52.9618 51.7221 52.9618 51.5751C52.9732 51.1874 52.527 50.7597 52.7558 50.5191C53.0418 50.2117 53.5224 50.1449 53.9228 49.9845C54.1631 49.8909 54.4148 49.8241 54.6436 49.7305C55.0784 49.5434 55.4788 49.3563 55.4216 50.2384C55.3988 50.6528 55.6505 50.6261 55.8907 50.4924C56.0738 50.3855 56.234 50.2518 56.4285 50.1716C58.362 49.3697 59.9867 51.134 59.6091 53.6334C59.346 55.3844 58.671 56.1061 57.0806 56.3467C56.7603 56.4002 56.4285 56.4804 56.1081 56.4938C55.353 56.5205 55.2386 57.015 55.5246 57.67C55.845 58.3917 55.6047 58.5789 55.0326 58.7125C54.5407 58.8195 54.0716 59.06 53.591 59.2338C53.1563 59.3942 52.9389 59.3006 52.9503 58.6858C52.9961 57.5096 52.9732 56.3601 52.9732 55.2106ZM55.4331 53.4864H55.4216C55.4216 53.9809 55.4331 54.4888 55.4216 54.9834C55.4102 55.3576 55.5589 55.5314 55.8793 55.4779C56.2797 55.4111 56.6687 55.3175 56.9204 54.8765C57.3323 54.1547 57.3438 52.2968 56.909 51.5751C56.7145 51.2409 56.4513 51.027 56.0852 51.1473C55.7191 51.2676 55.4445 51.4949 55.4445 51.9894C55.4216 52.4839 55.4331 52.9785 55.4331 53.4864Z" fill="#1F6F3E"/>
<path d="M33.4086 49.9444C34.1408 49.9444 34.873 49.9577 35.6053 49.9444C35.9828 49.9444 36.1316 49.9711 35.9943 50.5325C35.6396 51.976 35.8684 53.4597 35.8341 54.9299C35.8227 55.2908 36.0172 55.5314 36.3261 55.6116C36.5892 55.6784 36.7265 55.8655 36.7151 56.173C36.7037 56.5205 36.8638 56.9482 36.6007 57.1754C36.349 57.4026 36.0858 57.0819 35.8456 56.9348C35.4108 56.6809 34.9646 56.5472 34.4612 56.5472C33.3742 56.5739 32.2873 56.6007 31.2004 56.5338C30.3423 56.4937 29.5414 56.6274 28.8549 57.2556C28.546 57.5363 28.4774 57.416 28.4545 57.0418C28.4202 56.4002 28.2714 55.7185 29.038 55.4646C29.3469 55.3576 29.2897 54.9967 29.3011 54.7161C29.3126 53.9141 29.3011 53.1255 29.3126 52.3235C29.324 50.7463 29.9304 50.0112 31.2919 49.9444C31.9898 49.9176 32.6992 49.9444 33.4086 49.9444ZM33.4314 53.179C33.4429 52.8314 33.4543 52.4706 33.4314 52.123C33.42 51.7889 33.523 51.3745 33.134 51.2142C32.7793 51.0671 32.4246 51.1607 32.1386 51.4013C31.8182 51.6552 31.7496 52.0696 31.7381 52.4973C31.7267 53.0854 31.7725 53.6735 31.7152 54.2616C31.6237 55.117 31.8869 55.3977 32.6191 55.3844C33.1912 55.371 33.4772 55.2106 33.4314 54.5022C33.4086 54.0478 33.4314 53.6067 33.4314 53.179Z" fill="#1F6F3E"/>
<path d="M72.0687 56.761C68.8881 56.8546 67.9842 53.62 68.7508 51.8022C69.3572 50.3587 70.4441 49.8107 71.7141 49.7439C72.6408 49.6904 73.5904 49.7706 74.4142 50.3988C75.4096 51.174 75.3867 52.5374 74.3684 53.2859C73.5561 53.874 72.6294 54.0477 71.7141 54.2349C71.4852 54.2883 71.1534 54.1814 71.0734 54.5556C71.0047 54.9032 71.2221 55.1838 71.4166 55.4111C71.737 55.772 72.1374 55.9591 72.595 55.7319C72.7895 55.6383 73.0298 55.4779 72.904 55.224C72.5607 54.4888 73.0756 54.4487 73.4188 54.3017C73.9566 54.0745 74.4485 54.2616 74.7574 54.7962C75.0435 55.2908 74.7231 55.7185 74.4028 55.9992C73.682 56.6408 72.801 56.6541 72.0687 56.761ZM71.2793 53.3928C71.92 53.3794 72.7095 52.6577 72.6751 52.0696C72.6408 51.5215 72.3891 51.1206 71.8742 51.1072C71.3937 51.0938 70.8102 52.0963 70.7988 52.925C70.7873 53.2725 70.9818 53.4329 71.2793 53.3928Z" fill="#1F6F3E"/>
<path d="M24.5187 56.7744C22.9398 56.7611 21.7384 55.9056 21.2693 54.569C20.8002 53.2191 21.052 51.8156 21.9444 50.7463C22.5164 50.078 23.2487 49.8508 24.0038 49.7706C25.0106 49.6637 26.0175 49.7706 26.9213 50.3855C27.9625 51.0805 27.8366 52.6978 26.9328 53.2592C26.0632 53.8072 25.1594 54.0879 24.2097 54.2349C23.5805 54.3284 23.4775 54.5824 23.8207 55.1972C24.1068 55.7051 24.4843 55.9056 24.9763 55.7853C25.4454 55.665 25.5369 55.3576 25.3653 54.8096C25.2623 54.4755 25.6628 54.3953 25.8802 54.3017C26.4637 54.0745 27.1845 54.3284 27.3332 54.8497C27.5392 55.5848 27.1044 55.9457 26.6582 56.2398C25.9488 56.7076 25.1479 56.6541 24.5187 56.7744ZM25.228 52.1899C25.1937 51.5617 24.9763 51.1874 24.5644 51.1206C23.9695 51.0404 23.7063 51.5483 23.5919 52.1097C23.5004 52.524 23.1915 52.9785 23.5919 53.4062C23.6148 53.4195 23.6377 53.4463 23.6606 53.4463C24.164 53.6601 25.2395 52.6978 25.228 52.1899Z" fill="#1F6F3E"/>
<path d="M63.2703 50.7998C63.2703 50.9468 63.2818 51.0939 63.2703 51.2409C63.1903 51.976 63.3161 52.0963 63.9454 51.7488C64.8378 51.2409 65.7989 51.1874 66.6684 51.9359C67.4807 52.631 67.6981 53.6201 67.4006 54.6893C67.0231 56.0928 65.9819 56.5205 64.8721 56.721C63.8081 56.9081 62.7669 56.7878 61.783 56.2131C61.1308 55.8388 60.8105 55.2373 60.7418 54.4087C60.6388 53.1656 60.9821 51.8825 60.4787 50.6662C60.3642 50.3988 60.6388 50.3721 60.799 50.3186C61.3482 50.1182 61.8974 49.9043 62.458 49.7038C63.2703 49.4231 63.2703 49.4231 63.2703 50.4523C63.2703 50.5726 63.2703 50.6929 63.2703 50.7998ZM63.2475 53.9542C63.2932 54.6359 63.2703 55.3443 64.0827 55.3576C64.609 55.3576 65.0094 54.7428 64.9751 53.9809C64.9408 53.1255 64.5289 52.4839 64.0255 52.5508C63.2475 52.631 63.2932 53.3661 63.2475 53.9542Z" fill="#1F6F3E"/>
<path d="M48.2479 56.8012C46.3487 56.7744 44.93 55.3042 44.9414 53.3795C44.9529 51.2008 46.3487 49.6503 48.2594 49.6771C50.1815 49.7038 51.5545 51.2275 51.5316 53.326C51.5316 55.3844 50.1586 56.8279 48.2479 56.8012ZM47.4127 53.0587C47.3784 53.7136 47.4242 54.2616 47.6416 54.7829C47.7674 55.0903 47.939 55.3175 48.2594 55.3443C48.6255 55.3844 48.82 55.1171 48.9688 54.7963C49.3234 54.0344 49.312 53.1923 49.1747 52.3904C49.0717 51.829 48.9001 51.1473 48.2708 51.1741C47.5958 51.2008 47.5043 51.9092 47.4242 52.524C47.3899 52.7245 47.4127 52.9384 47.4127 53.0587Z" fill="#1F6F3E"/>
<path d="M41.0056 49.7974C41.6463 49.8375 42.207 49.8642 42.7333 50.0914C43.5914 50.4523 43.9689 51.0805 43.8774 52.0028C43.8087 52.6443 43.2367 53.1255 42.39 53.179C41.8294 53.2191 41.2917 53.3527 40.7654 53.5399C40.3535 53.6869 40.0674 53.9943 40.0331 54.5557C39.9988 55.0903 40.2047 55.5047 40.5709 55.7453C40.9713 56.0126 41.429 56.173 41.8637 55.8255C42.2527 55.5314 42.39 55.0903 42.0125 54.7294C41.3717 54.1012 41.9324 53.9542 42.2642 53.8072C42.985 53.473 43.763 53.7805 43.9804 54.3953C44.2092 55.0235 43.9117 55.6918 43.2023 56.1863C42.0125 57.015 39.3924 56.8814 38.2712 55.9324C37.7906 55.518 37.4931 55.0101 37.6076 54.275C37.722 53.5399 38.0766 53.072 38.683 52.8181C39.3352 52.5374 40.0446 52.6844 40.6967 52.4438C41.0285 52.3236 41.4175 52.3102 41.4518 51.7488C41.4747 51.3612 41.3832 51.0404 41.0743 50.8533C40.6738 50.6127 40.2505 50.5726 39.8386 50.8132C39.7013 50.8934 39.5755 51.0805 39.6555 51.2543C39.9073 51.8691 39.6556 52.083 39.1865 52.1097C38.7517 52.1364 38.2025 52.3235 38.0194 51.6285C37.8707 51.0671 38.0881 50.6528 38.5686 50.3454C39.381 49.8241 40.2391 49.9043 41.0056 49.7974Z" fill="#186E3A"/>
<path d="M77.8695 42.0851C77.8924 43.3416 77.4919 44.5445 77.5606 45.8143C77.6063 46.6162 77.8123 46.9103 78.5216 47.0172C79.1166 47.1108 79.8031 47.1241 80.3065 47.6722C79.6886 47.5385 79.0479 47.6053 78.4759 47.2712C78.3386 47.191 78.1898 47.1108 78.0754 47.2845C77.9953 47.4048 78.064 47.8058 77.7894 47.5519C77.6063 47.3781 77.286 47.2177 77.3203 46.9103C77.4919 45.3064 77.3317 43.6356 77.8695 42.0851Z" fill="#1F6F3E"/>
<path d="M80.7755 47.6855C82.6633 47.5652 84.5168 48.2335 86.4161 48.0331C87.789 47.8994 89.1505 47.5118 90.5349 47.6855C90.2489 47.7791 89.9514 47.9128 89.6654 47.9395C86.9996 48.1801 84.3223 48.3004 81.6565 47.9261C81.3476 47.8994 81.0615 47.7791 80.7755 47.6855Z" fill="#1F6F3E"/>
<path d="M75.1578 39.7862C75.6498 39.0778 76.5194 38.9174 77.2859 39.3852C76.5194 39.158 75.8443 39.4788 75.1578 39.7862Z" fill="#1F6F3E"/>
<path d="M91.8621 47.6053C92.2397 47.0172 92.7774 47.4583 93.2236 47.3246C92.8118 47.6722 92.3083 47.4182 91.8621 47.6053Z" fill="#1F6F3E"/>
<path d="M95.2145 46.9638C95.592 46.4558 96.0955 46.6563 96.5645 46.6029C96.1412 46.8836 95.6607 46.8702 95.2145 46.9638Z" fill="#1F6F3E"/>
<path d="M73.9337 40.5213C74.1396 40.0134 74.5515 39.9332 74.9634 39.853C74.6659 40.1738 74.3112 40.3609 73.9337 40.5213Z" fill="#1F6F3E"/>
<path d="M93.6927 47.2445C94.0017 46.7098 94.4479 47.0707 94.8254 46.9905C94.4593 47.1509 94.1046 47.3647 93.6927 47.2445Z" fill="#1F6F3E"/>
<path d="M77.4347 39.5189C78.1784 39.5456 77.7894 40.2139 77.8809 40.6149C77.7894 40.2139 77.7322 39.7995 77.4347 39.5189Z" fill="#1F6F3E"/>
<path d="M73.3273 40.9223C73.3616 40.5347 73.6019 40.5748 73.8307 40.6015C73.6934 40.7752 73.5332 40.9089 73.3273 40.9223Z" fill="#1F6F3E"/>
</svg>
