<svg width="40" height="32" viewBox="0 0 40 32" fill="none" xmlns="http://www.w3.org/2000/svg">
<path d="M16 0.5H39.5V31.5H16C7.43959 31.5 0.5 24.5604 0.5 16C0.5 7.43959 7.43959 0.5 16 0.5Z" fill="white" stroke="#F5F5F7"/>
<path d="M20.728 20L18.726 17.13C18.642 17.1393 18.516 17.144 18.348 17.144H16.136V20H14.316V10.2H18.348C19.1973 10.2 19.9347 10.34 20.56 10.62C21.1947 10.9 21.68 11.3013 22.016 11.824C22.352 12.3467 22.52 12.9673 22.52 13.686C22.52 14.4233 22.338 15.058 21.974 15.59C21.6193 16.122 21.106 16.5187 20.434 16.78L22.688 20H20.728ZM20.686 13.686C20.686 13.0607 20.4807 12.58 20.07 12.244C19.6593 11.908 19.0573 11.74 18.264 11.74H16.136V15.646H18.264C19.0573 15.646 19.6593 15.478 20.07 15.142C20.4807 14.7967 20.686 14.3113 20.686 13.686ZM28.7702 20.14C27.4169 20.14 26.3622 19.762 25.6062 19.006C24.8502 18.2407 24.4722 17.1487 24.4722 15.73V10.2H26.2922V15.66C26.2922 17.5827 27.1229 18.544 28.7842 18.544C30.4362 18.544 31.2622 17.5827 31.2622 15.66V10.2H33.0542V15.73C33.0542 17.1487 32.6762 18.2407 31.9202 19.006C31.1736 19.762 30.1236 20.14 28.7702 20.14Z" fill="#2B2C2E"/>
</svg>
