<svg width="29" height="11" viewBox="0 0 29 11" fill="none" xmlns="http://www.w3.org/2000/svg">
<path d="M6.728 10L4.726 7.13C4.642 7.13933 4.516 7.144 4.348 7.144H2.136V10H0.316V0.199999H4.348C5.19733 0.199999 5.93467 0.339999 6.56 0.62C7.19467 0.899999 7.68 1.30133 8.016 1.824C8.352 2.34667 8.52 2.96733 8.52 3.686C8.52 4.42333 8.338 5.058 7.974 5.59C7.61933 6.122 7.106 6.51867 6.434 6.78L8.688 10H6.728ZM6.686 3.686C6.686 3.06067 6.48067 2.58 6.07 2.244C5.65933 1.908 5.05733 1.74 4.264 1.74H2.136V5.646H4.264C5.05733 5.646 5.65933 5.478 6.07 5.142C6.48067 4.79667 6.686 4.31133 6.686 3.686ZM14.7702 10.14C13.4169 10.14 12.3622 9.762 11.6062 9.006C10.8502 8.24067 10.4722 7.14867 10.4722 5.73V0.199999H12.2922V5.66C12.2922 7.58267 13.1229 8.544 14.7842 8.544C16.4362 8.544 17.2622 7.58267 17.2622 5.66V0.199999H19.0542V5.73C19.0542 7.14867 18.6762 8.24067 17.9202 9.006C17.1736 9.762 16.1236 10.14 14.7702 10.14ZM24.6411 10.14C23.8851 10.14 23.1524 10.0327 22.4431 9.818C21.7431 9.60333 21.1878 9.31867 20.7771 8.964L21.4071 7.55C21.8084 7.86733 22.2984 8.12867 22.8771 8.334C23.4651 8.53 24.0531 8.628 24.6411 8.628C25.3691 8.628 25.9104 8.51133 26.2651 8.278C26.6291 8.04467 26.8111 7.73667 26.8111 7.354C26.8111 7.074 26.7084 6.84533 26.5031 6.668C26.3071 6.48133 26.0551 6.33667 25.7471 6.234C25.4391 6.13133 25.0191 6.01467 24.4871 5.884C23.7404 5.70667 23.1338 5.52933 22.6671 5.352C22.2098 5.17467 21.8131 4.89933 21.4771 4.526C21.1504 4.14333 20.9871 3.63 20.9871 2.986C20.9871 2.44467 21.1318 1.95467 21.4211 1.516C21.7198 1.068 22.1631 0.713333 22.7511 0.451999C23.3484 0.190666 24.0764 0.0599995 24.9351 0.0599995C25.5324 0.0599995 26.1204 0.134666 26.6991 0.284C27.2778 0.433333 27.7771 0.648 28.1971 0.928L27.6231 2.342C27.1938 2.09 26.7458 1.89867 26.2791 1.768C25.8124 1.63733 25.3598 1.572 24.9211 1.572C24.2024 1.572 23.6658 1.69333 23.3111 1.936C22.9658 2.17867 22.7931 2.50067 22.7931 2.902C22.7931 3.182 22.8911 3.41067 23.0871 3.588C23.2924 3.76533 23.5491 3.90533 23.8571 4.008C24.1651 4.11067 24.5851 4.22733 25.1171 4.358C25.8451 4.526 26.4424 4.70333 26.9091 4.89C27.3758 5.06733 27.7724 5.34267 28.0991 5.716C28.4351 6.08933 28.6031 6.59333 28.6031 7.228C28.6031 7.76933 28.4538 8.25933 28.1551 8.698C27.8658 9.13667 27.4224 9.48667 26.8251 9.748C26.2278 10.0093 25.4998 10.14 24.6411 10.14Z" fill="#2B2C2E"/>
</svg>
