<svg width="20" height="17" viewBox="0 0 20 17" fill="none" xmlns="http://www.w3.org/2000/svg">
<path d="M19.256 2.29843C18.6245 2.58879 17.993 2.76301 17.304 2.87916C17.5911 2.76301 18.0504 2.18228 18.28 1.94999C18.567 1.60155 18.7967 1.19504 18.9115 0.788527C18.9115 0.730453 18.9689 0.730454 18.9115 0.672381C18.8541 0.672381 18.8541 0.672381 18.7967 0.672381C18.0504 1.07889 17.304 1.36926 16.5003 1.54348C16.4429 1.54348 16.3855 1.54348 16.3281 1.4854C16.2707 1.42733 16.2133 1.31118 16.0984 1.25311C15.754 0.962746 15.4095 0.730453 15.0077 0.556234C14.491 0.323942 13.8595 0.265869 13.2854 0.265869C12.7113 0.323942 12.1372 0.440088 11.6779 0.730454C11.1612 1.02082 10.7019 1.36926 10.3575 1.83384C10.013 2.29843 9.72598 2.82108 9.55376 3.40181C9.43894 3.98255 9.43894 4.5052 9.49635 5.08593C9.49635 5.20208 9.49635 5.20208 9.43894 5.20208C6.28141 4.73749 3.64058 3.57603 1.51643 1.13696C1.40161 1.02082 1.40161 1.02082 1.28679 1.13696C0.368237 2.53072 0.827513 4.79557 1.9757 5.89896C2.14793 6.07317 2.26275 6.18932 2.43498 6.30547C2.37757 6.30547 1.57384 6.24739 0.884922 5.89896C0.770103 5.84088 0.770103 5.89896 0.712694 5.95703C0.712694 6.13125 0.712694 6.24739 0.712694 6.42161C0.884922 7.87344 1.86088 9.15105 3.23871 9.6737C3.41094 9.73178 3.58317 9.78985 3.7554 9.84792C3.46835 9.906 3.12389 9.96407 2.26275 9.906C2.14793 9.906 2.09052 9.96407 2.14793 10.0221C2.77944 11.8224 4.21467 12.4031 5.30545 12.6935C5.42027 12.6935 5.5925 12.6935 5.70732 12.7516C5.36286 13.2742 4.15726 13.6807 3.58317 13.913C2.5498 14.2615 1.40161 14.4357 0.310827 14.3195C0.138599 14.3195 0.0811893 14.3195 0.0237798 14.3195C-0.0336297 14.3776 0.0237798 14.3776 0.0811893 14.4357C0.310827 14.6099 0.540465 14.7261 0.770103 14.8422C1.45902 15.1906 2.20534 15.5391 2.95166 15.7133C6.85551 16.8167 11.276 16.0037 14.2039 13.0419C16.5003 10.719 17.304 7.525 17.304 4.33098C17.304 4.21484 17.4763 4.15676 17.5337 4.09869C18.1078 3.63411 18.6245 3.11145 19.0837 2.47265C19.1986 2.3565 19.1986 2.24035 19.1986 2.18228C19.3134 2.24035 19.3134 2.24035 19.256 2.29843Z" fill="#33CCFF"/>
</svg>
