<svg width="20" height="20" viewBox="0 0 20 20" fill="none" xmlns="http://www.w3.org/2000/svg">
<path d="M10.8727 1.94186C10.9473 1.94732 11.0164 1.95277 11.0745 1.96095C15.1682 2.59095 17.0509 4.53004 17.5718 8.6555C17.5809 8.7255 17.5827 8.81095 17.5836 8.90095C17.5891 9.22368 17.6 9.89459 18.32 9.90823H18.3418C18.5682 9.90823 18.7473 9.84004 18.8764 9.7055C19.1 9.47186 19.0855 9.12368 19.0718 8.84368C19.0691 8.77459 19.0664 8.71004 19.0664 8.65277C19.1191 4.43459 15.4664 0.608226 11.2518 0.466408C11.2336 0.466408 11.2173 0.466408 11.2009 0.469135C11.1843 0.471228 11.1676 0.472139 11.1509 0.471863C11.1082 0.471863 11.0573 0.468226 11.0018 0.46459C10.9364 0.460044 10.8609 0.45459 10.7836 0.45459C10.1127 0.45459 9.98545 0.931863 9.96909 1.21641C9.93182 1.87368 10.5673 1.92004 10.8727 1.94186V1.94186ZM17.3745 13.9873C17.2867 13.9205 17.1997 13.8527 17.1136 13.7837C16.6664 13.4237 16.1909 13.0928 15.7318 12.7719L15.4455 12.5719C14.8564 12.1582 14.3273 11.9573 13.8273 11.9573C13.1527 11.9573 12.5655 12.33 12.08 13.0637C11.8655 13.3891 11.6045 13.5473 11.2836 13.5473C11.0607 13.5395 10.842 13.4847 10.6418 13.3864C8.74182 12.5246 7.38363 11.2028 6.60727 9.45823C6.23182 8.61459 6.35363 8.06368 7.01363 7.61459C7.38909 7.36004 8.08636 6.88641 8.03818 5.97823C7.98182 4.94823 5.70818 1.84732 4.75 1.4955C4.34038 1.34608 3.89137 1.3448 3.48091 1.49186C2.38 1.86186 1.59091 2.51277 1.19545 3.37186C0.813634 4.20277 0.831815 5.17823 1.24454 6.19277C2.44 9.12641 4.12 11.6846 6.23909 13.7955C8.31272 15.8619 10.8618 17.5537 13.8145 18.8255C14.0809 18.94 14.36 19.0028 14.5645 19.0482C14.6336 19.0637 14.6936 19.0773 14.7373 19.0891C14.7613 19.0956 14.786 19.099 14.8109 19.0991H14.8345C16.2236 19.0991 17.8918 17.83 18.4036 16.3837C18.8527 15.1164 18.0327 14.49 17.3745 13.9873V13.9873ZM11.4873 5.29368C11.25 5.29913 10.7545 5.31186 10.5809 5.8155C10.4991 6.05186 10.5091 6.2555 10.61 6.42368C10.7573 6.66913 11.04 6.7455 11.2964 6.78732C12.2282 6.93641 12.7073 7.45095 12.8027 8.40823C12.8473 8.85368 13.1482 9.1655 13.5327 9.1655C13.5619 9.16545 13.591 9.16363 13.62 9.16004C14.0836 9.1055 14.3082 8.76459 14.2882 8.14732C14.2955 7.50368 13.9591 6.77277 13.3855 6.19095C12.8109 5.60732 12.1182 5.27823 11.4873 5.29368V5.29368Z" fill="#675DA9"/>
</svg>
